<?xml version="1.0" encoding="utf-8"?>
<!-- Generator: Adobe Illustrator 22.1.0, SVG Export Plug-In . SVG Version: 6.00 Build 0)  -->
<svg version="1.1" id="Слой_1" xmlns="http://www.w3.org/2000/svg" xmlns:xlink="http://www.w3.org/1999/xlink" x="0px" y="0px"
	 viewBox="0 0 2102 1238" style="enable-background:new 0 0 2102 1238;" xml:space="preserve">
<style type="text/css">
	.st0{fill:#FFFFFF;}
	.st1{fill:#9CD116;}
	.st2{fill:#333333;}
	.st3{fill:#BF0010;}
	.st4{fill:none;stroke:#B3B3B3;}
	.st5{fill:#FFCCCC;}
	.st6{fill:#FFF497;}
	.st7{fill:#CCFFFF;}
	.st8{fill:#EEEEEE;fill-opacity:0.9333;}
	.st9{fill:#666666;fill-opacity:0.9333;}
	.st10{fill:#FF0000;fill-opacity:0.9333;}
	.st11{fill:#FFCC00;fill-opacity:0.9333;}
	.st12{fill:none;stroke:#B3B3B3;stroke-miterlimit:10;}
	.st13{fill:#B3B3B3;}
</style>

<g fill="#CCFFFF">
	<g fill="#eeeeee">
		<circle id="s1r1p1" cx="836.1" cy="831.4" r="9"/>
		<circle id="s1r1p2" cx="869.8" cy="831.4" r="9"/>	
	</g>
	<g fill="#FFCCCC">
		<circle id="s1r1p3" cx="903.6" cy="831.4" r="9"/>
	</g>
	<g fill="#FFF497">
		<circle id="s1r2p1" cx="836.1" cy="861.2" r="9"/>
		<circle id="s1r2p2" cx="869.8" cy="861.2" r="9"/>
		<circle id="s1r2p3" cx="903.6" cy="861.2" r="9"/>	
	</g>	
	<circle id="s1r3p1" cx="836.4" cy="889.3" r="9"/>
	<circle id="s1r3p2" cx="870.2" cy="889.3" r="9"/>
	<circle id="s1r3p3" cx="904" cy="889.3" r="9"/>
<path class="st4" d="M1018.1,822.4v86.4h104v-86.4"/>
	<g fill="#ffcccc">
		<circle id="s2r1p1" cx="1035.9" cy="831.4" r="9"/>
		<circle id="s2r1p2" cx="1069.7" cy="831.4" r="9"/>
		<circle id="s2r1p3" cx="1103.5" cy="831.4" r="9"/>	
	</g>
	<g fill="#FFF497">
		<circle id="s2r2p1" cx="1035.9" cy="861.2" r="9"/>
		<circle id="s2r2p2" cx="1069.7" cy="861.2" r="9"/>
		<circle id="s2r2p3" cx="1103.5" cy="861.2" r="9"/>
	</g>
	<circle id="s2r3p1" cx="1036.3" cy="889.3" r="9"/>
	<circle id="s2r3p2" cx="1070.1" cy="889.3" r="9"/>
	<circle id="s2r3p3" cx="1103.9" cy="889.3" r="9"/>
<path class="st4" d="M1219.5,822.4v86.4h104v-86.4"/>
	<g fill="#ffcccc">
		<circle id="s3r1p1" cx="1237.3" cy="831.4" r="9"/>	
	</g>
	<g fill="#eeeeee">		
		<circle id="s3r1p2" cx="1271.1" cy="831.4" r="9"/>
		<circle id="s3r1p3" cx="1304.9" cy="831.4" r="9"/>
	</g>	
	<g fill="#FFF497">
		<circle id="s3r2p1" cx="1237.3" cy="861.2" r="9"/>
		<circle id="s3r2p2" cx="1271.1" cy="861.2" r="9"/>
		<circle id="s3r2p3" cx="1304.9" cy="861.2" r="9"/>
	</g>
	<circle id="s3r3p1" cx="1237.7" cy="889.3" r="9"/>
	<circle id="s3r3p2" cx="1271.5" cy="889.3" r="9"/>
	<circle id="s3r3p3" cx="1305.3" cy="889.3" r="9"/>
</g>	
</svg>
